 <svg  version="1.0" xmlns="http://www.w3.org/2000/svg"  width="300.000000pt" height="300.000000pt" viewBox="0 0 300.000000 300.000000"  preserveAspectRatio="xMidYMid meet">  <g transform="translate(0.000000,300.000000) scale(0.050000,-0.050000)" fill="#4878d4" stroke="none"> <path d="M1000 3000 l0 -1940 510 0 510 0 0 1940 0 1940 -510 0 -510 0 0 -1940z"/> <path d="M2855 2821 c-761 -243 -843 -1307 -126 -1659 696 -342 1476 307 1261 1050 -139 483 -658 762 -1135 609z m475 -419 c321 -149 372 -601 92 -816 -375 -289 -894 71 -752 523 85 269 405 411 660 293z"/> <path d="M4225 1455 l5 -385 385 -5 385 -6 0 391 0 390 -390 0 -391 0 6 -385z"/> </g> </svg> 