<?xml version="1.0" standalone="no"?>
<!DOCTYPE svg PUBLIC "-//W3C//DTD SVG 20010904//EN"
 "http://www.w3.org/TR/2001/REC-SVG-20010904/DTD/svg10.dtd">
<svg version="1.0" xmlns="http://www.w3.org/2000/svg"
 width="1024.000000pt" height="1024.000000pt" viewBox="0 0 1024.000000 1024.000000"
 preserveAspectRatio="xMidYMid meet">
<metadata>
Created by potrace 1.14, written by Peter Selinger 2001-2017
</metadata>
<g transform="translate(0.000000,1024.000000) scale(0.100000,-0.100000)"
fill="#000000" stroke="none">
<path d="M1658 9605 c-2 -3 -49 -7 -104 -10 -54 -2 -110 -7 -124 -10 -14 -3
-34 -8 -45 -10 -138 -27 -309 -116 -424 -221 -30 -27 -58 -53 -63 -59 -54 -62
-73 -87 -101 -130 -17 -27 -35 -53 -40 -56 -5 -3 -8 -9 -8 -13 1 -3 -10 -31
-24 -61 -14 -31 -25 -62 -25 -70 0 -7 -4 -16 -9 -19 -5 -3 -12 -20 -15 -38 -3
-18 -9 -44 -12 -58 -3 -14 -9 -52 -15 -85 -11 -67 -8 -7297 3 -7330 3 -11 11
-41 17 -67 22 -94 64 -190 127 -288 142 -223 359 -368 636 -426 62 -13 223
-18 240 -8 4 3 8 1 8 -4 0 -5 17 -6 40 -2 22 4 40 4 40 0 0 -4 18 -4 40 0 22
4 40 4 40 -1 0 -5 6 -6 13 -3 18 7 157 10 157 3 0 -3 22 -3 48 1 27 3 60 3 74
-1 14 -4 31 -3 38 1 7 4 24 4 39 0 14 -4 35 -4 45 0 11 4 36 4 55 0 20 -3 48
-3 62 1 15 3 32 3 39 -1 7 -4 27 -4 45 0 18 4 38 4 45 0 6 -4 28 -4 48 0 21 3
49 3 63 -1 15 -3 32 -3 39 1 7 4 24 4 39 0 14 -4 35 -4 45 0 11 4 36 4 55 0
20 -3 48 -3 62 1 15 3 32 3 39 -1 7 -4 27 -4 45 0 18 4 38 4 45 0 7 -4 26 -4
44 -1 17 4 46 4 64 0 18 -3 34 -3 37 1 3 4 20 4 39 0 19 -4 53 -4 75 0 23 4
41 4 41 0 0 -4 18 -4 40 0 22 4 40 4 40 0 0 -4 18 -4 40 0 22 4 40 4 40 0 0
-4 18 -4 40 0 22 4 40 4 40 0 0 -4 18 -4 40 0 22 4 40 4 40 0 0 -4 18 -4 40 0
22 4 40 4 40 0 0 -4 18 -4 40 0 23 4 40 3 40 -2 0 -5 5 -6 10 -3 9 5 42 6 155
4 11 0 46 1 78 1 31 1 62 -2 67 -5 6 -3 10 -2 10 3 0 5 17 6 38 3 20 -4 56 -4
79 -1 23 4 47 4 54 0 6 -4 26 -4 45 0 18 4 35 5 38 2 4 -3 43 -4 88 -3 46 1
90 2 98 2 32 -1 189 -1 197 0 4 1 13 0 18 -1 20 -4 127 -1 132 4 3 3 15 1 27
-3 11 -4 32 -5 46 -1 14 3 42 3 62 0 20 -4 42 -4 49 0 6 4 24 4 39 0 15 -4 46
-4 69 0 22 4 41 4 41 0 0 -4 18 -4 40 0 22 4 40 4 40 0 0 -4 18 -4 40 0 22 4
40 4 40 0 0 -4 18 -4 40 0 22 4 40 4 40 0 0 -4 18 -4 40 0 22 4 40 4 40 0 0
-4 18 -4 40 0 22 4 40 4 40 0 0 -4 18 -4 40 0 22 4 40 4 40 -1 0 -5 6 -6 13
-3 18 7 157 10 157 3 0 -3 22 -3 48 1 27 3 60 3 74 -1 14 -4 31 -3 38 1 7 4
24 4 39 0 14 -4 35 -4 45 0 11 4 36 4 55 0 20 -3 48 -3 62 1 15 3 32 3 39 -1
7 -4 27 -4 46 0 18 4 35 5 38 3 7 -7 205 -5 216 2 6 4 10 1 10 -5 0 -6 5 -8
11 -4 7 4 30 8 53 10 23 1 55 5 71 8 17 3 44 8 60 10 62 12 78 16 165 45 134
46 249 106 358 188 45 34 471 453 1032 1014 525 525 966 969 980 985 44 50
110 143 110 154 0 5 4 10 9 10 5 0 11 8 14 17 3 10 13 29 21 43 43 69 101 223
121 320 2 8 4 15 5 15 1 0 3 11 6 25 2 14 7 39 11 55 4 17 9 1196 10 2620 3
2810 6 2580 -40 2772 -2 7 -6 16 -10 19 -4 4 -7 13 -7 20 0 22 -59 141 -103
206 -56 84 -95 127 -187 209 -90 79 -280 173 -394 195 -12 2 -33 6 -47 9 -59
13 -223 20 -238 11 -4 -3 -13 -1 -20 3 -7 5 -28 5 -47 1 -18 -4 -35 -5 -38 -2
-4 3 -43 4 -88 3 -46 -1 -90 -2 -98 -2 -32 1 -189 1 -197 0 -4 -1 -12 0 -18 1
-20 4 -127 1 -132 -4 -3 -3 -15 -1 -27 3 -11 4 -32 5 -46 1 -14 -3 -42 -3 -62
0 -20 4 -42 4 -49 0 -6 -4 -24 -4 -39 0 -15 4 -46 4 -69 0 -22 -4 -41 -4 -41
0 0 4 -18 4 -40 0 -22 -4 -40 -4 -40 0 0 4 -18 4 -40 0 -22 -4 -40 -4 -40 0 0
4 -18 4 -40 0 -22 -4 -40 -4 -40 0 0 4 -18 4 -40 0 -22 -4 -40 -4 -40 0 0 4
-18 4 -40 0 -22 -4 -40 -4 -40 0 0 4 -18 4 -40 0 -22 -4 -40 -4 -40 1 0 5 -6
6 -13 3 -18 -7 -157 -10 -157 -3 0 3 -22 3 -48 -1 -27 -3 -60 -3 -74 1 -14 4
-31 3 -38 -1 -7 -4 -24 -4 -39 0 -14 4 -35 4 -45 0 -11 -4 -36 -4 -55 0 -20 3
-48 3 -62 -1 -15 -3 -32 -3 -39 1 -7 4 -27 4 -45 0 -18 -4 -38 -4 -45 0 -6 4
-28 4 -48 0 -21 -3 -49 -3 -63 1 -15 3 -32 3 -39 -1 -7 -4 -24 -4 -39 0 -14 4
-35 4 -45 0 -11 -4 -36 -4 -55 0 -20 3 -48 3 -62 -1 -15 -3 -32 -3 -39 1 -7 4
-27 4 -45 0 -18 -4 -38 -4 -45 0 -7 4 -26 4 -44 1 -17 -4 -46 -4 -64 0 -18 3
-34 3 -37 -1 -3 -4 -20 -4 -39 0 -19 4 -53 4 -75 0 -23 -4 -41 -4 -41 0 0 4
-18 4 -40 0 -22 -4 -40 -4 -40 0 0 4 -18 4 -40 0 -22 -4 -40 -4 -40 0 0 4 -18
4 -40 0 -22 -4 -40 -4 -40 0 0 4 -18 4 -40 0 -22 -4 -40 -4 -40 0 0 4 -18 4
-40 0 -22 -4 -40 -4 -40 0 0 4 -18 4 -40 0 -23 -4 -40 -3 -40 2 0 5 -5 6 -10
3 -9 -5 -42 -6 -155 -4 -11 0 -46 -1 -78 -1 -31 -1 -62 2 -67 5 -6 3 -10 2
-10 -3 0 -5 -17 -6 -37 -3 -21 4 -57 4 -80 1 -23 -4 -47 -4 -54 0 -6 4 -26 4
-45 0 -18 -4 -35 -5 -38 -2 -4 3 -43 4 -88 3 -46 -1 -90 -2 -98 -2 -32 1 -189
1 -197 0 -4 -1 -12 0 -18 1 -20 4 -127 1 -132 -4 -3 -3 -15 -1 -27 3 -11 4
-32 5 -46 1 -14 -3 -42 -3 -62 0 -20 4 -42 4 -49 0 -6 -4 -24 -4 -39 0 -15 4
-46 4 -69 0 -22 -4 -41 -4 -41 0 0 4 -18 4 -40 0 -22 -4 -40 -4 -40 0 0 4 -18
4 -40 0 -22 -4 -40 -4 -40 0 0 4 -18 4 -40 0 -22 -4 -40 -4 -40 0 0 4 -18 4
-40 0 -22 -4 -40 -4 -40 0 0 4 -18 4 -40 0 -22 -4 -40 -4 -40 0 0 4 -18 4 -40
0 -22 -4 -40 -4 -40 1 0 5 -6 6 -13 3 -18 -7 -157 -10 -157 -3 0 3 -22 3 -48
-1 -27 -3 -60 -3 -74 1 -14 4 -31 3 -38 -1 -7 -4 -24 -4 -39 0 -14 4 -35 4
-45 0 -11 -4 -36 -4 -55 0 -20 3 -48 3 -62 -1 -15 -3 -32 -3 -39 1 -7 4 -27 4
-45 0 -18 -4 -38 -4 -45 0 -6 4 -28 4 -48 0 -21 -3 -49 -3 -63 1 -15 3 -32 3
-39 -1 -7 -4 -24 -4 -39 0 -14 4 -35 4 -45 0 -11 -4 -36 -4 -55 0 -20 3 -48 3
-62 -1 -15 -3 -32 -3 -39 1 -7 4 -27 4 -45 0 -18 -4 -38 -4 -45 0 -7 4 -26 4
-44 1 -17 -4 -46 -4 -64 0 -18 3 -34 3 -37 -1 -3 -4 -20 -4 -39 0 -19 4 -53 4
-75 0 -23 -4 -41 -4 -41 0 0 4 -18 4 -40 0 -22 -4 -40 -4 -40 0 0 4 -18 4 -39
0 -22 -4 -44 -3 -49 2 -4 4 -11 6 -14 3z m372 -1285 c0 6 9 6 23 1 14 -5 30
-5 40 0 11 7 17 6 17 0 0 -7 8 -7 25 -1 14 5 25 6 25 2 0 -4 14 -7 30 -7 17 0
30 3 30 7 0 4 11 3 25 -2 16 -6 25 -6 25 0 0 6 9 6 23 1 14 -5 30 -5 40 0 11
7 17 6 17 0 0 -7 8 -7 25 -1 14 5 25 6 25 2 0 -4 14 -7 30 -7 17 0 30 3 30 7
0 4 11 3 25 -2 16 -6 25 -6 25 0 0 6 9 6 23 1 14 -5 30 -5 40 0 11 7 17 6 17
0 0 -7 8 -7 25 -1 14 5 25 6 25 2 0 -4 14 -7 30 -7 17 0 30 3 30 7 0 4 11 3
25 -2 16 -6 25 -6 25 0 0 6 9 6 23 1 14 -5 30 -5 40 0 11 7 17 6 17 0 0 -7 8
-7 25 -1 14 5 25 6 25 2 0 -4 14 -7 30 -7 17 0 30 3 30 7 0 4 11 3 25 -2 17
-6 25 -6 25 1 0 6 4 7 10 4 15 -9 80 -12 80 -3 0 4 11 3 25 -2 16 -6 25 -6 25
0 0 6 9 6 23 2 22 -9 75 -7 84 2 3 3 16 1 29 -4 14 -6 26 -6 29 1 4 5 12 6 18
2 6 -4 21 -7 32 -7 11 0 26 3 32 7 6 4 14 3 18 -3 4 -7 12 -7 26 0 12 7 19 7
19 1 0 -7 9 -7 23 -2 12 5 31 5 42 1 11 -4 29 -4 40 0 11 4 30 4 42 -1 13 -5
25 -4 28 2 4 5 12 6 18 2 6 -4 21 -7 32 -7 11 0 26 3 32 7 6 4 14 3 18 -3 4
-7 12 -7 26 0 13 8 19 7 19 0 0 -6 5 -8 10 -5 10 6 92 9 115 5 6 -1 15 -1 20
0 23 5 116 2 121 -3 4 -4 15 -2 25 3 12 7 20 7 24 0 4 -7 12 -7 25 0 13 7 21
7 25 0 4 -6 11 -8 16 -4 13 8 118 9 125 1 4 -4 15 -2 25 3 12 7 20 7 24 0 4
-7 12 -7 25 0 12 6 21 7 25 0 4 -6 15 -6 30 0 16 6 25 6 25 0 0 -6 9 -6 25 0
16 6 25 6 25 0 0 -5 9 -6 22 -1 13 4 35 5 50 0 16 -4 30 -3 33 2 4 5 14 5 25
-1 13 -7 21 -7 25 0 4 6 12 7 23 1 9 -5 26 -5 39 0 14 5 23 5 23 -1 0 -5 9 -6
22 -1 13 4 35 5 50 0 16 -4 30 -3 33 2 4 5 14 5 25 -1 13 -7 21 -7 25 0 4 6
12 7 23 1 9 -5 26 -5 39 0 14 5 23 5 23 -1 0 -5 9 -6 22 -1 13 4 35 5 50 0 16
-4 28 -4 28 1 0 5 7 7 15 4 19 -8 115 -11 115 -4 0 7 78 3 96 -4 7 -3 16 -1
19 4 4 7 13 6 25 0 13 -7 21 -7 25 0 4 6 12 7 23 1 9 -5 26 -5 39 0 14 5 23 5
23 -1 0 -5 9 -6 22 -1 13 4 35 5 50 0 16 -4 30 -3 33 2 4 5 14 5 25 -1 13 -7
21 -7 25 0 4 6 12 7 23 1 9 -5 26 -5 39 0 14 5 23 5 23 -1 0 -5 9 -6 22 -1 13
4 35 5 50 0 16 -4 30 -3 33 2 4 5 14 5 25 -1 12 -6 21 -7 25 0 3 5 15 6 28 1
13 -5 30 -5 39 0 11 6 19 5 23 -1 4 -7 12 -7 25 0 13 7 21 7 25 0 4 -6 11 -8
16 -4 13 8 118 9 125 1 4 -4 15 -2 25 3 12 7 20 7 24 0 4 -7 12 -7 24 0 10 5
21 6 25 3 9 -9 67 -9 73 0 2 4 13 3 23 -3 13 -7 21 -7 25 0 4 6 11 7 17 4 12
-8 118 -11 118 -4 0 7 78 3 96 -4 7 -3 16 -1 19 4 4 7 13 6 25 0 13 -7 21 -7
25 0 4 6 12 7 23 1 9 -5 26 -5 39 0 14 5 23 5 23 -1 0 -5 9 -6 22 -1 13 4 35
5 50 0 16 -4 30 -3 33 2 4 5 14 5 25 -1 13 -7 21 -7 25 0 4 6 12 7 23 1 9 -5
26 -5 39 0 14 5 23 5 23 -1 0 -5 9 -6 22 -1 13 4 35 5 50 0 16 -4 30 -3 33 2
4 5 14 5 25 -1 12 -6 21 -7 25 0 3 5 15 6 28 1 13 -5 30 -5 39 0 11 6 19 5 23
-1 4 -7 12 -7 25 0 13 7 21 7 25 0 4 -6 11 -8 16 -4 13 8 118 9 125 1 4 -4 15
-2 25 3 12 7 20 7 24 0 4 -7 12 -7 25 0 10 6 21 7 23 3 6 -9 59 -9 73 0 6 3
16 2 24 -3 9 -5 19 -5 26 1 7 6 15 6 18 1 3 -5 26 -6 51 -2 25 4 48 3 51 -2 3
-4 10 -6 15 -2 13 8 118 9 125 1 4 -4 15 -2 25 3 12 7 20 7 24 0 4 -7 12 -7
25 0 11 6 21 6 24 1 4 -5 18 -6 34 -2 15 4 39 4 55 0 16 -5 27 -4 27 2 0 7 6
7 17 0 11 -6 24 -6 35 0 10 6 19 5 23 -1 4 -6 15 -6 30 0 14 5 25 6 25 2 0 -4
14 -7 30 -7 17 0 30 3 30 7 0 4 13 2 29 -3 26 -9 29 -13 21 -35 -6 -15 -6 -24
0 -24 6 0 6 -9 1 -23 -5 -13 -6 -30 -1 -37 5 -7 5 -23 0 -35 -4 -11 -4 -28 1
-37 6 -10 6 -19 0 -22 -6 -4 -6 -18 -1 -36 5 -17 5 -30 0 -30 -5 0 -5 -13 0
-28 4 -16 4 -36 -1 -45 -6 -9 -5 -18 0 -22 6 -3 7 -15 1 -29 -4 -12 -5 -29 0
-36 5 -7 5 -23 0 -35 -4 -11 -4 -28 1 -37 6 -10 6 -19 0 -22 -6 -4 -6 -18 -1
-36 5 -17 5 -30 0 -30 -5 0 -5 -13 0 -28 4 -16 4 -36 -1 -45 -6 -9 -5 -18 0
-22 6 -3 7 -15 1 -29 -4 -12 -5 -29 0 -36 5 -7 5 -23 0 -35 -4 -11 -4 -28 1
-37 6 -10 6 -19 0 -22 -6 -4 -6 -18 -1 -36 5 -17 5 -30 0 -30 -5 0 -5 -13 0
-28 4 -16 4 -36 -1 -45 -6 -9 -5 -18 0 -22 6 -3 7 -15 1 -29 -4 -12 -5 -29 0
-36 5 -7 5 -23 0 -35 -4 -11 -4 -28 1 -37 6 -10 6 -19 0 -22 -6 -4 -6 -18 -1
-36 5 -17 6 -30 2 -30 -4 0 -7 -22 -7 -50 0 -27 3 -50 7 -50 4 0 3 -13 -2 -30
-5 -17 -5 -30 0 -30 5 0 5 -13 0 -29 -4 -15 -4 -34 0 -42 5 -7 5 -20 0 -29 -5
-9 -5 -22 0 -30 5 -8 5 -21 0 -30 -5 -9 -5 -22 0 -30 5 -8 5 -21 0 -30 -5 -9
-5 -22 0 -30 5 -8 5 -21 0 -30 -5 -9 -5 -22 0 -30 5 -8 5 -21 0 -30 -5 -9 -5
-22 0 -30 5 -8 5 -21 0 -30 -5 -9 -5 -22 0 -30 5 -8 5 -21 0 -30 -5 -9 -5 -22
0 -30 5 -8 5 -21 0 -30 -5 -9 -5 -22 0 -30 5 -8 5 -21 0 -30 -5 -9 -5 -22 0
-30 5 -8 5 -21 0 -30 -5 -9 -5 -22 0 -30 5 -8 5 -21 0 -30 -5 -9 -5 -22 0 -30
5 -8 5 -21 0 -30 -5 -9 -5 -22 0 -30 5 -8 5 -21 0 -30 -5 -9 -5 -22 0 -30 5
-8 5 -21 0 -30 -5 -9 -5 -22 0 -30 5 -8 5 -21 0 -31 -5 -9 -6 -19 -3 -23 8 -8
7 -112 -2 -126 -3 -5 -3 -10 2 -10 9 0 8 -83 -1 -99 -4 -5 -2 -12 3 -16 6 -3
7 -15 1 -29 -4 -12 -5 -29 0 -36 5 -7 5 -23 0 -35 -4 -11 -4 -28 1 -37 6 -10
6 -19 0 -22 -6 -4 -6 -18 -1 -36 5 -17 5 -30 0 -30 -5 0 -5 -13 0 -28 4 -16 4
-36 -1 -45 -6 -9 -5 -18 0 -22 6 -3 7 -15 1 -29 -4 -12 -5 -29 0 -36 5 -7 5
-23 0 -35 -4 -11 -4 -28 1 -37 6 -10 6 -19 0 -22 -6 -4 -6 -18 -1 -36 5 -17 5
-30 0 -30 -5 0 -5 -13 0 -28 4 -16 4 -36 -1 -45 -6 -9 -5 -18 0 -22 6 -3 7
-15 1 -29 -4 -12 -5 -29 0 -36 5 -7 5 -23 0 -35 -4 -11 -4 -28 1 -37 6 -10 6
-19 0 -22 -6 -4 -6 -18 -1 -36 5 -17 5 -30 0 -30 -5 0 -5 -13 0 -28 4 -16 4
-36 -1 -45 -6 -9 -5 -18 0 -22 6 -3 7 -15 1 -29 -4 -12 -5 -29 0 -36 5 -7 5
-23 0 -35 -4 -11 -4 -28 1 -37 6 -10 6 -19 0 -22 -6 -4 -6 -18 -1 -36 5 -17 6
-30 2 -30 -4 0 -7 -22 -7 -50 0 -27 3 -50 7 -50 4 0 3 -14 -2 -30 -5 -17 -5
-30 0 -30 5 0 5 -13 0 -29 -4 -15 -4 -34 0 -42 5 -7 5 -20 0 -28 -4 -9 -4 -23
0 -31 5 -9 5 -22 0 -30 -5 -8 -5 -21 0 -30 5 -9 5 -22 0 -30 -5 -8 -5 -21 0
-30 5 -9 5 -22 0 -30 -5 -8 -5 -21 0 -30 5 -9 5 -22 0 -30 -5 -8 -5 -21 0 -30
5 -9 5 -22 0 -30 -5 -8 -5 -21 1 -31 6 -11 5 -20 -1 -24 -6 -3 -6 -15 0 -30 8
-22 6 -25 -23 -33 -18 -5 -36 -6 -41 -1 -5 4 -19 4 -32 -1 -14 -6 -26 -6 -29
0 -3 5 -18 5 -35 0 -16 -5 -32 -5 -35 0 -3 5 -19 5 -35 0 -18 -5 -30 -5 -30 0
0 6 -10 6 -25 0 -15 -6 -27 -6 -30 0 -3 5 -15 6 -29 0 -12 -4 -29 -5 -36 0 -7
5 -24 4 -36 0 -14 -6 -26 -5 -29 0 -3 5 -18 5 -35 0 -16 -5 -32 -5 -35 0 -3 5
-19 5 -35 0 -19 -5 -30 -5 -30 1 0 6 -5 7 -10 4 -14 -9 -108 -10 -116 -2 -3 3
-17 2 -30 -3 -14 -6 -26 -6 -29 0 -3 6 -15 6 -30 0 -15 -6 -27 -6 -30 0 -3 6
-15 6 -30 0 -15 -6 -27 -6 -30 0 -3 6 -15 6 -30 0 -15 -6 -27 -6 -30 0 -3 6
-15 6 -30 0 -15 -6 -27 -6 -30 0 -3 6 -15 6 -30 0 -15 -6 -27 -6 -30 0 -3 6
-15 6 -30 0 -15 -6 -27 -6 -30 0 -3 6 -15 6 -30 0 -15 -6 -27 -6 -30 0 -3 6
-15 6 -30 0 -15 -6 -27 -6 -30 0 -4 6 -13 7 -24 1 -10 -6 -23 -6 -31 -1 -8 5
-19 6 -24 2 -6 -3 -23 -7 -40 -9 -61 -7 -133 -25 -166 -44 -8 -4 -39 -20 -69
-35 -30 -15 -87 -60 -130 -103 -95 -94 -147 -188 -178 -321 -4 -19 -14 -111
-13 -127 0 -7 0 -20 0 -28 0 -8 0 -22 0 -30 0 -8 0 -22 0 -30 0 -8 0 -22 0
-30 0 -8 0 -22 0 -30 0 -8 0 -22 0 -30 0 -8 0 -22 0 -30 0 -8 0 -22 0 -30 0
-8 0 -22 0 -30 0 -8 0 -22 0 -30 0 -8 0 -22 0 -30 0 -8 0 -22 0 -30 0 -8 0
-22 0 -30 0 -8 0 -22 0 -30 0 -8 0 -22 0 -30 0 -8 0 -22 0 -30 0 -8 0 -22 0
-30 0 -8 0 -22 0 -30 0 -8 0 -22 0 -30 0 -8 0 -22 0 -30 0 -8 0 -22 0 -30 0
-8 0 -22 0 -30 0 -8 0 -22 0 -30 0 -8 0 -22 0 -30 0 -8 0 -22 0 -30 0 -8 0
-22 0 -30 0 -8 0 -22 0 -30 0 -8 0 -22 0 -30 0 -8 0 -22 0 -30 0 -8 0 -22 0
-30 0 -8 0 -22 0 -30 0 -8 0 -22 0 -30 0 -8 0 -22 0 -30 0 -8 0 -22 0 -30 0
-8 0 -22 0 -30 0 -8 0 -21 0 -27 0 -7 0 -44 1 -83 1 -126 1 -128 -20 -122 -10
2 -25 1 -32 -4 -7 -4 -21 -3 -30 2 -11 6 -20 5 -24 -1 -4 -6 -12 -7 -23 -1 -9
5 -26 5 -39 0 -14 -5 -23 -5 -23 1 0 5 -9 6 -22 1 -13 -4 -35 -5 -50 0 -15 4
-30 4 -32 0 -5 -7 -81 -5 -102 3 -7 3 -16 1 -19 -4 -4 -7 -13 -6 -25 0 -13 7
-21 7 -25 0 -4 -6 -12 -7 -23 -1 -9 5 -26 5 -39 0 -14 -5 -23 -5 -23 1 0 5 -9
6 -22 1 -13 -4 -35 -5 -50 0 -16 4 -30 3 -33 -2 -4 -5 -14 -5 -25 1 -12 6 -21
7 -25 0 -3 -5 -15 -6 -28 -1 -13 5 -30 5 -39 0 -11 -6 -19 -5 -23 1 -4 7 -12
7 -25 0 -13 -7 -21 -7 -25 0 -4 6 -11 8 -16 4 -13 -8 -118 -9 -125 -1 -4 4
-15 2 -25 -3 -12 -7 -20 -7 -24 0 -4 7 -12 7 -25 0 -10 -6 -21 -7 -23 -3 -6 9
-59 9 -73 0 -6 -3 -16 -2 -24 3 -9 5 -19 5 -26 -1 -7 -6 -15 -6 -18 -1 -3 5
-26 6 -51 2 -25 -4 -48 -3 -51 2 -3 4 -10 6 -15 2 -13 -8 -118 -9 -125 -1 -4
4 -15 2 -25 -3 -12 -7 -20 -7 -24 0 -4 7 -12 7 -25 0 -13 -7 -21 -7 -25 0 -4
6 -11 8 -16 4 -13 -8 -118 -9 -125 -1 -4 4 -15 2 -25 -3 -12 -7 -20 -7 -24 0
-4 7 -12 7 -25 0 -12 -6 -21 -7 -25 0 -4 6 -15 6 -30 0 -16 -6 -25 -6 -25 0 0
6 -9 6 -25 0 -16 -6 -25 -6 -25 0 0 5 -9 6 -22 1 -13 -4 -35 -5 -50 0 -16 4
-30 3 -33 -2 -4 -5 -14 -5 -25 1 -13 7 -21 7 -25 0 -4 -6 -12 -7 -23 -1 -9 5
-26 5 -39 0 -14 -5 -23 -5 -23 1 0 5 -9 6 -22 1 -13 -4 -35 -5 -50 0 -16 4
-30 3 -33 -2 -4 -5 -14 -5 -25 1 -13 7 -21 7 -25 0 -4 -6 -12 -7 -23 -1 -9 5
-26 5 -39 0 -14 -5 -23 -5 -23 1 0 5 -9 6 -22 1 -13 -4 -35 -5 -50 0 -16 4
-28 4 -28 -1 0 -6 -10 -6 -22 -2 -23 9 -76 7 -85 -2 -3 -3 -16 -1 -29 4 -14 6
-26 6 -29 -1 -4 -5 -12 -6 -18 -2 -15 9 -49 9 -64 0 -6 -4 -14 -3 -18 3 -4 7
-12 7 -26 0 -12 -7 -19 -7 -19 -1 0 7 -9 7 -22 2 -13 -5 -32 -5 -43 -1 -11 4
-29 4 -40 0 -11 -4 -30 -4 -42 1 -13 5 -25 4 -28 -2 -4 -5 -12 -6 -18 -2 -15
9 -49 9 -64 0 -6 -4 -14 -3 -18 3 -4 7 -12 7 -26 0 -12 -7 -19 -7 -19 -1 0 6
-8 7 -21 3 -12 -5 -43 -5 -70 -2 -27 4 -49 3 -49 -2 0 -4 -11 -3 -25 2 -16 6
-25 6 -25 0 0 -6 -9 -6 -23 -1 -14 5 -30 5 -40 0 -11 -7 -17 -6 -17 0 0 7 -8
7 -25 1 -14 -5 -25 -6 -25 -2 0 4 -13 7 -30 7 -16 0 -30 -3 -30 -7 0 -4 -11
-3 -25 2 -16 6 -25 6 -25 0 0 -6 -9 -6 -23 -1 -14 5 -30 5 -40 0 -11 -7 -17
-6 -17 0 0 7 -8 7 -25 1 -14 -5 -25 -6 -25 -2 0 4 -13 7 -30 7 -16 0 -30 -3
-30 -7 0 -4 -11 -3 -25 2 -16 6 -25 6 -25 0 0 -6 -9 -6 -23 -1 -14 5 -30 5
-40 0 -11 -7 -17 -6 -17 0 0 7 -8 7 -25 1 -14 -5 -25 -6 -25 -2 0 4 -13 7 -30
7 -16 0 -30 -3 -30 -7 0 -4 -11 -3 -25 2 -16 6 -25 6 -25 0 0 -6 -9 -6 -23 -1
-14 5 -30 5 -40 0 -11 -7 -17 -6 -17 0 0 7 -8 7 -25 1 -14 -5 -25 -6 -25 -2 0
4 -13 7 -30 7 -16 0 -30 -3 -30 -7 0 -4 -11 -3 -25 2 -16 6 -25 6 -25 0 0 -6
-9 -6 -23 -1 -14 5 -30 5 -40 0 -11 -7 -17 -6 -17 0 0 7 -8 7 -25 1 -15 -6
-25 -6 -25 0 0 5 -12 5 -29 0 -20 -6 -33 -4 -39 3 -14 18 -21 44 -14 51 9 9
10 46 1 46 -4 0 -4 14 1 30 5 17 5 30 0 30 -5 0 -5 13 0 30 5 17 5 30 0 30 -5
0 -5 13 0 30 5 17 5 30 0 30 -5 0 -5 13 0 30 5 17 5 30 0 30 -5 0 -5 13 0 30
5 17 5 30 0 30 -5 0 -5 13 0 30 5 17 5 30 0 30 -5 0 -5 13 0 30 5 17 5 30 0
30 -5 0 -5 13 0 30 5 17 5 30 1 30 -4 0 -4 27 -1 60 3 33 3 60 -1 60 -4 0 -4
14 1 30 5 17 5 30 0 30 -5 0 -5 13 0 30 5 17 5 30 0 30 -5 0 -5 13 0 30 5 17
5 30 0 30 -5 0 -5 13 0 30 5 17 5 30 0 30 -5 0 -5 13 0 30 5 17 5 30 0 30 -5
0 -5 13 0 30 5 17 5 30 0 30 -5 0 -5 13 0 30 5 17 5 30 0 30 -5 0 -5 13 0 30
5 17 5 30 0 30 -5 0 -5 13 0 30 5 17 5 30 0 30 -5 0 -5 13 0 30 5 17 5 30 0
30 -5 0 -5 12 -1 28 5 15 5 37 0 49 -5 13 -4 25 1 28 6 3 6 15 0 30 -6 15 -6
27 0 30 6 3 6 15 0 30 -6 15 -6 27 0 30 6 3 6 15 0 30 -5 14 -5 27 0 30 5 3 5
18 0 35 -5 17 -5 30 0 30 5 0 5 13 0 30 -5 17 -5 30 0 30 5 0 5 12 1 28 -5 15
-5 37 0 49 5 13 4 25 -1 28 -6 4 -7 13 -1 24 5 9 6 22 3 28 -9 14 -7 77 2 92
4 5 2 12 -3 16 -6 3 -7 15 -1 29 4 12 5 29 0 36 -5 7 -5 23 0 35 4 11 4 28 -1
37 -6 10 -6 19 0 22 6 4 6 18 1 36 -5 17 -5 30 0 30 5 0 5 13 0 28 -4 16 -4
36 1 45 6 9 5 18 0 22 -6 3 -7 15 -1 29 4 12 5 29 0 36 -5 7 -5 23 0 35 4 11
4 28 -1 37 -6 10 -6 19 0 22 6 4 6 18 1 36 -5 17 -6 30 -2 30 4 0 7 23 7 50 0
28 -3 50 -7 50 -4 0 -3 14 2 30 5 17 5 30 0 30 -5 0 -5 13 0 29 4 15 4 34 0
42 -5 7 -5 20 0 29 5 9 5 22 0 30 -5 8 -5 21 0 30 5 9 5 22 0 30 -5 8 -5 21 0
30 5 9 5 22 0 30 -5 8 -5 21 0 30 5 9 5 22 0 30 -5 8 -5 21 0 30 5 9 5 22 0
30 -5 8 -5 21 0 30 5 9 5 22 0 30 -5 8 -5 21 0 30 5 9 5 22 0 30 -5 8 -5 21 0
30 5 9 5 22 0 30 -5 8 -5 21 0 30 5 9 5 22 0 30 -5 8 -5 21 0 30 5 9 5 22 0
30 -5 8 -5 21 0 30 5 9 5 22 0 30 -5 8 -5 21 0 30 5 9 5 22 0 30 -5 8 -5 21 0
30 5 9 5 22 0 30 -5 8 -5 21 0 30 5 9 5 22 0 30 -5 8 -5 21 0 31 5 9 6 19 3
23 -8 8 -7 112 2 126 3 5 3 10 -2 10 -9 0 -8 83 1 99 4 5 2 12 -3 16 -6 3 -7
15 -1 29 4 12 5 29 0 36 -5 7 -5 23 0 35 4 11 4 28 -1 37 -6 10 -6 19 0 22 6
4 6 18 1 36 -5 17 -5 30 0 30 5 0 5 13 0 28 -4 16 -4 36 1 45 6 9 5 18 0 22
-6 3 -7 15 -1 29 4 12 5 29 0 36 -5 7 -5 23 0 35 4 11 4 28 -1 37 -6 10 -6 19
0 22 6 4 6 18 1 36 -5 17 -6 30 -2 30 4 0 7 23 7 50 0 28 -3 50 -7 50 -4 0 -3
14 2 30 5 17 5 30 0 30 -5 0 -5 13 0 30 5 17 5 30 0 30 -5 0 -5 13 0 30 5 17
5 30 0 30 -5 0 -5 13 0 30 5 17 5 30 0 30 -5 0 -5 13 0 30 5 17 5 30 0 30 -5
0 -5 13 0 30 5 17 5 30 0 30 -5 0 -5 13 0 30 5 17 5 30 0 30 -5 0 -5 13 0 30
5 17 5 30 0 30 -5 0 -5 13 0 30 5 17 5 30 0 30 -5 0 -5 13 0 30 5 17 5 30 0
30 -5 0 -5 12 -1 28 5 15 5 37 0 49 -5 13 -4 25 1 28 6 3 6 15 0 30 -6 15 -6
27 0 30 6 3 6 15 0 30 -6 15 -6 27 0 30 6 3 6 15 0 30 -5 14 -5 27 0 30 5 3 5
18 0 35 -5 17 -5 30 0 30 5 0 5 13 0 30 -5 17 -5 30 0 30 5 0 5 12 1 28 -5 15
-5 37 0 49 5 13 4 25 -1 28 -6 4 -7 13 -1 24 5 9 6 23 2 30 -5 7 -5 30 -1 51
4 21 4 44 -1 51 -4 7 -4 20 1 28 4 9 4 23 0 31 -5 9 -5 22 0 29 4 8 4 27 0 42
-5 16 -5 29 0 29 5 0 5 13 0 30 -5 17 -5 30 0 30 5 0 5 13 0 30 -5 17 -5 30 0
30 5 0 5 13 0 30 -5 17 -5 30 0 30 5 0 5 13 0 30 -5 17 -5 30 0 30 5 0 5 13 0
30 -5 17 -5 30 0 30 5 0 5 12 1 28 -5 15 -5 36 -1 47 4 11 3 26 -2 32 -13 16
13 28 42 20 11 -3 20 -1 20 4 0 5 11 4 25 -1 16 -6 25 -6 25 0z"/>
</g>
</svg>
