<?xml version="1.0" standalone="no"?>
<!DOCTYPE svg PUBLIC "-//W3C//DTD SVG 20010904//EN"
 "http://www.w3.org/TR/2001/REC-SVG-20010904/DTD/svg10.dtd">
<svg version="1.0" xmlns="http://www.w3.org/2000/svg"
 width="500.000000pt" height="500.000000pt" viewBox="0 0 500.000000 500.000000"
 preserveAspectRatio="xMidYMid meet">
<metadata>
Created by potrace 1.14, written by Peter Selinger 2001-2017
</metadata>
<g transform="translate(0.000000,500.000000) scale(0.100000,-0.100000)"
fill="#000000" stroke="none">
<path d="M0 2500 l0 -2500 2500 0 2500 0 0 2500 0 2500 -2500 0 -2500 0 0
-2500z m1690 0 l0 -1610 -430 0 -430 0 0 1610 0 1610 430 0 430 0 0 -1610z
m1058 -126 c160 -33 271 -93 392 -214 96 -97 155 -195 189 -320 116 -417 -140
-842 -563 -935 -112 -25 -281 -17 -391 19 -131 42 -252 124 -348 235 -58 69
-131 214 -152 301 -19 84 -19 266 0 348 93 393 483 646 873 566z m1422 -1164
l0 -320 -325 0 -325 0 0 320 0 320 325 0 325 0 0 -320z"/>
<path d="M2502 2024 c-112 -30 -205 -108 -256 -214 -29 -61 -31 -72 -31 -175
0 -99 3 -116 27 -168 30 -65 117 -156 176 -185 104 -52 253 -56 354 -10 251
115 313 452 119 646 -105 105 -248 144 -389 106z"/>
</g>
</svg>
